<?xml version="1.0" encoding="UTF-8" standalone="no"?>
<svg
   version="1.1"
   id="sunGlobe"
   x="0px"
   y="0px"
   viewBox="0 0 100 100"
   enable-background="new 0 0 100 100"
   xml:space="preserve"
   sodipodi:docname="1.svg"
   inkscape:export-filename="/home/eexpss/project/gnome-shell-weather/weather-icon/1.png"
   inkscape:export-xdpi="188.11501"
   inkscape:export-ydpi="188.11501"
   inkscape:version="1.1.1 (3bf5ae0d25, 2021-09-20)"
   xmlns:inkscape="http://www.inkscape.org/namespaces/inkscape"
   xmlns:sodipodi="http://sodipodi.sourceforge.net/DTD/sodipodi-0.dtd"
   xmlns="http://www.w3.org/2000/svg"
   xmlns:svg="http://www.w3.org/2000/svg"><defs
   id="defs78" /><sodipodi:namedview
   id="namedview76"
   pagecolor="#ffffff"
   bordercolor="#666666"
   borderopacity="1.0"
   inkscape:pageshadow="2"
   inkscape:pageopacity="0.0"
   inkscape:pagecheckerboard="0"
   showgrid="false"
   inkscape:zoom="7.93"
   inkscape:cx="49.936948"
   inkscape:cy="50"
   inkscape:window-width="1912"
   inkscape:window-height="1008"
   inkscape:window-x="0"
   inkscape:window-y="34"
   inkscape:window-maximized="1"
   inkscape:current-layer="sunGlobe" />
<g
   id="sunrays">
	<radialGradient
   id="XMLID_4_"
   cx="51.1566"
   cy="21.1667"
   r="4.7267"
   gradientUnits="userSpaceOnUse">
		<stop
   offset="0.3333"
   style="stop-color:#FBD25A"
   id="stop2" />
		<stop
   offset="0.7581"
   style="stop-color:#FAD45D"
   id="stop4" />
		<stop
   offset="1"
   style="stop-color:#F5E16E"
   id="stop6" />
	</radialGradient>

		<path
   id="XMLID_3_"
   fill="url(#XMLID_4_)"
   stroke="#6D6E71"
   stroke-width="0.5"
   stroke-miterlimit="10"
   stroke-opacity="7.000000e-002"
   d="   M56.1,25.3h-9.7c0,0-1.2-6.1,0-7.4c1.2-1.3,8.9-1,9.7,0C56.8,18.9,56.1,25.3,56.1,25.3z" />
	<radialGradient
   id="XMLID_12_"
   cx="71.2457"
   cy="29.7708"
   r="6.0292"
   gradientUnits="userSpaceOnUse">
		<stop
   offset="0.3333"
   style="stop-color:#FBD25A"
   id="stop10" />
		<stop
   offset="0.7581"
   style="stop-color:#FAD45D"
   id="stop12" />
		<stop
   offset="1"
   style="stop-color:#F5E16E"
   id="stop14" />
	</radialGradient>

		<path
   id="XMLID_5_"
   fill="url(#XMLID_12_)"
   stroke="#6D6E71"
   stroke-width="0.5"
   stroke-miterlimit="10"
   stroke-opacity="7.000000e-002"
   d="   M71.8,35.8l-6.6-7.1c0,0,3.7-5,5.4-5.1s6.8,5.8,6.6,7.1C77.1,32,71.8,35.8,71.8,35.8z" />
	<radialGradient
   id="XMLID_13_"
   cx="79.016"
   cy="49.1667"
   r="4.757"
   gradientUnits="userSpaceOnUse">
		<stop
   offset="0.3333"
   style="stop-color:#FBD25A"
   id="stop18" />
		<stop
   offset="0.7581"
   style="stop-color:#FAD45D"
   id="stop20" />
		<stop
   offset="1"
   style="stop-color:#F5E16E"
   id="stop22" />
	</radialGradient>

		<path
   id="XMLID_6_"
   fill="url(#XMLID_13_)"
   stroke="#6D6E71"
   stroke-width="0.5"
   stroke-miterlimit="10"
   stroke-opacity="7.000000e-002"
   d="   M75.1,54.2l-0.3-9.7c0,0,6.1-1.3,7.4-0.2c1.3,1.1,1.2,8.9,0.3,9.7C81.5,54.8,75.1,54.2,75.1,54.2z" />
	<radialGradient
   id="XMLID_14_"
   cx="70.2457"
   cy="69.6002"
   r="6.0234"
   gradientUnits="userSpaceOnUse">
		<stop
   offset="0.3333"
   style="stop-color:#FBD25A"
   id="stop26" />
		<stop
   offset="0.7581"
   style="stop-color:#FAD45D"
   id="stop28" />
		<stop
   offset="1"
   style="stop-color:#F5E16E"
   id="stop30" />
	</radialGradient>

		<path
   id="XMLID_7_"
   fill="url(#XMLID_14_)"
   stroke="#6D6E71"
   stroke-width="0.5"
   stroke-miterlimit="10"
   stroke-opacity="7.000000e-002"
   d="   M64.3,70.7l6.4-7.2c0,0,5.3,3.2,5.5,4.9c0.2,1.7-5.2,7.3-6.4,7.2C68.5,75.6,64.3,70.7,64.3,70.7z" />

		<radialGradient
   id="XMLID_15_"
   cx="50.7987"
   cy="78.0712"
   r="4.7789"
   gradientTransform="matrix(0.998 -6.322496e-002 6.322496e-002 0.998 -4.8396 3.3703)"
   gradientUnits="userSpaceOnUse">
		<stop
   offset="0.3333"
   style="stop-color:#FBD25A"
   id="stop34" />
		<stop
   offset="0.7581"
   style="stop-color:#FAD45D"
   id="stop36" />
		<stop
   offset="1"
   style="stop-color:#F5E16E"
   id="stop38" />
	</radialGradient>

		<path
   id="XMLID_8_"
   fill="url(#XMLID_15_)"
   stroke="#6D6E71"
   stroke-width="0.5"
   stroke-miterlimit="10"
   stroke-opacity="7.000000e-002"
   d="   M45.8,74.2l9.7-0.2c0,0,1.3,6.1,0.2,7.4c-1.1,1.3-8.9,1.2-9.7,0.2C45.2,80.6,45.8,74.2,45.8,74.2z" />
	<radialGradient
   id="XMLID_16_"
   cx="30.5864"
   cy="70.2252"
   r="6.0153"
   gradientUnits="userSpaceOnUse">
		<stop
   offset="0.3333"
   style="stop-color:#FBD25A"
   id="stop42" />
		<stop
   offset="0.7581"
   style="stop-color:#FAD45D"
   id="stop44" />
		<stop
   offset="1"
   style="stop-color:#F5E16E"
   id="stop46" />
	</radialGradient>

		<path
   id="XMLID_9_"
   fill="url(#XMLID_16_)"
   stroke="#6D6E71"
   stroke-width="0.5"
   stroke-miterlimit="10"
   stroke-opacity="7.000000e-002"
   d="   M29.3,64.3l7.3,6.3c0,0-3.1,5.4-4.8,5.6s-7.4-5-7.3-6.3C24.6,68.6,29.3,64.3,29.3,64.3z" />
	<radialGradient
   id="XMLID_44_"
   cx="21.0871"
   cy="50"
   r="4.8093"
   gradientUnits="userSpaceOnUse">
		<stop
   offset="0.3333"
   style="stop-color:#FBD25A"
   id="stop50" />
		<stop
   offset="0.7581"
   style="stop-color:#FAD45D"
   id="stop52" />
		<stop
   offset="1"
   style="stop-color:#F5E16E"
   id="stop54" />
	</radialGradient>

		<path
   id="XMLID_10_"
   fill="url(#XMLID_44_)"
   stroke="#6D6E71"
   stroke-width="0.5"
   stroke-miterlimit="10"
   stroke-opacity="7.000000e-002"
   d="   M24.8,44.8l0.6,9.6c0,0-6,1.5-7.4,0.5c-1.4-1.1-1.5-8.8-0.6-9.6C18.3,44.4,24.8,44.8,24.8,44.8z" />
	<radialGradient
   id="XMLID_45_"
   cx="29.9614"
   cy="29.0073"
   r="6.019"
   gradientUnits="userSpaceOnUse">
		<stop
   offset="0.3333"
   style="stop-color:#FBD25A"
   id="stop58" />
		<stop
   offset="0.7581"
   style="stop-color:#FAD45D"
   id="stop60" />
		<stop
   offset="1"
   style="stop-color:#F5E16E"
   id="stop62" />
	</radialGradient>

		<path
   id="XMLID_11_"
   fill="url(#XMLID_45_)"
   stroke="#6D6E71"
   stroke-width="0.5"
   stroke-miterlimit="10"
   stroke-opacity="7.000000e-002"
   d="   M36,28.6L28.7,35c0,0-4.9-3.8-4.9-5.6c0-1.7,6.1-6.6,7.3-6.3C32.4,23.3,36,28.6,36,28.6z" />
</g>
<radialGradient
   id="XMLID_46_"
   cx="50"
   cy="49.1667"
   r="26.8776"
   gradientUnits="userSpaceOnUse">
	<stop
   offset="0.3333"
   style="stop-color:#E3BF4C"
   id="stop67" />
	<stop
   offset="0.7473"
   style="stop-color:#F4CE52"
   id="stop69" />
	<stop
   offset="1"
   style="stop-color:#F5E16E"
   id="stop71" />
</radialGradient>
<ellipse
   id="XMLID_1_"
   fill="url(#XMLID_46_)"
   stroke="#58595B"
   stroke-width="0.5"
   stroke-miterlimit="10"
   stroke-opacity="7.000000e-002"
   cx="50"
   cy="49.2"
   rx="27.3"
   ry="26.5" />
</svg>
