<svg version="1.1" xmlns="http://www.w3.org/2000/svg" xmlns:xlink="http://www.w3.org/1999/xlink" x="0px" y="0px"
	 viewBox="0 0 100 100" enable-background="new 0 0 100 100" xml:space="preserve">
<g id="snowflakes">
	<g id="flake3">
		<path fill="#5BCAEB" d="M72,78.1c0.6,0.6,0.6,1.6,0,2.2l0,0c-0.6,0.6-1.6,0.6-2.2,0l-8.7-8.7C60.5,71,60.3,70,61,69.3
			s1.7-0.4,2.3,0.2L72,78.1z"/>
		<path fill="#5BCAEB" d="M63.1,80.3c-0.6,0.6-1.6,0.6-2.2,0l0,0c-0.6-0.6-0.6-1.6,0-2.2l8.7-8.7c0.6-0.6,1.7-0.8,2.3-0.2
			c0.7,0.7,0.4,1.7-0.2,2.3L63.1,80.3z"/>
		<path fill="#5BCAEB" d="M60.2,76.3c-0.9,0-1.5-0.7-1.5-1.5l0,0c0-0.9,0.7-1.5,1.5-1.5h12.3c0.9,0,1.8,0.6,1.8,1.5
			c0,0.9-0.9,1.5-1.8,1.5H60.2z"/>
		<path id="XMLID_8_" fill="#5BCAEB" d="M68,81c0,0.9-0.7,1.5-1.5,1.5l0,0c-0.9,0-1.5-0.7-1.5-1.5V68.8c0-0.9,0.6-1.8,1.5-1.8
			c0.9,0,1.5,0.9,1.5,1.8V81z"/>
	</g>
	<g id="flake2">
		<path fill="#5BCAEB" d="M53.5,78.1c0.6,0.6,0.6,1.6,0,2.2l0,0c-0.6,0.6-1.6,0.6-2.2,0l-8.7-8.7C42,71,41.8,70,42.5,69.3
			c0.7-0.7,1.7-0.4,2.3,0.2L53.5,78.1z"/>
		<path fill="#5BCAEB" d="M44.6,80.3c-0.6,0.6-1.6,0.6-2.2,0l0,0c-0.6-0.6-0.6-1.6,0-2.2l8.7-8.7c0.6-0.6,1.7-0.8,2.3-0.2
			c0.7,0.7,0.4,1.7-0.2,2.3L44.6,80.3z"/>
		<path fill="#5BCAEB" d="M41.7,76.3c-0.9,0-1.5-0.7-1.5-1.5l0,0c0-0.9,0.7-1.5,1.5-1.5H54c0.9,0,1.8,0.6,1.8,1.5
			c0,0.9-0.9,1.5-1.8,1.5H41.7z"/>
		<path id="XMLID_17_" fill="#5BCAEB" d="M49.5,81c0,0.9-0.7,1.5-1.5,1.5l0,0c-0.9,0-1.5-0.7-1.5-1.5V68.8c0-0.9,0.6-1.8,1.5-1.8
			c0.9,0,1.5,0.9,1.5,1.8V81z"/>
	</g>
	<g id="flake1">
		<path fill="#5BCAEB" d="M35.1,78.1c0.6,0.6,0.6,1.6,0,2.2l0,0c-0.6,0.6-1.6,0.6-2.2,0l-8.7-8.7c-0.6-0.6-0.8-1.7-0.2-2.3
			c0.7-0.7,1.7-0.4,2.3,0.2L35.1,78.1z"/>
		<path fill="#5BCAEB" d="M26.3,80.3c-0.6,0.6-1.6,0.6-2.2,0l0,0c-0.6-0.6-0.6-1.6,0-2.2l8.7-8.7c0.6-0.6,1.7-0.8,2.3-0.2
			c0.7,0.7,0.4,1.7-0.2,2.3L26.3,80.3z"/>
		<path fill="#5BCAEB" d="M23.4,76.3c-0.9,0-1.5-0.7-1.5-1.5l0,0c0-0.9,0.7-1.5,1.5-1.5h12.3c0.9,0,1.8,0.6,1.8,1.5
			c0,0.9-0.9,1.5-1.8,1.5H23.4z"/>
		<path fill="#5BCAEB" d="M31.1,81c0,0.9-0.7,1.5-1.5,1.5l0,0c-0.9,0-1.5-0.7-1.5-1.5V68.8c0-0.9,0.6-1.8,1.5-1.8s1.5,0.9,1.5,1.8
			V81z"/>
	</g>
</g>
<g id="bigCloudSnow">
	
		<path id="XMLID_1_" fill="#F4F4F4" stroke="#515251" stroke-width="0.5" stroke-miterlimit="10" stroke-opacity="8.000000e-002" d="
		M22.3,65.5c0,0-8.9-2.9-9.3-12.8s10-11.3,11.4-10.1c0,0,2.5-8.4,10.1-8.6c0,0,3.5-13.4,17.8-13.1c0,0,15.6-0.8,17.9,16.4
		c0,0,12.9-1,13.4,15.1c0,0-1.4,10.9-11.9,13.1c0,0-12,2-13.8-2.3c-0.2,2.1-15,6-19.6,0C33.8,68.4,22.3,65.5,22.3,65.5z"/>
</g>
</svg>


