<svg version="1.1" xmlns="http://www.w3.org/2000/svg" xmlns:xlink="http://www.w3.org/1999/xlink" x="0px" y="0px"
	 viewBox="0 0 100 100" enable-background="new 0 0 100 100" xml:space="preserve">
<g id="Layer_4">
	<radialGradient id="chubbyMoon_1_" cx="73.25" cy="20.1667" r="71.3092" gradientUnits="userSpaceOnUse">
		<stop  offset="0.4082" style="stop-color:#D3D0B2"/>
		<stop  offset="0.42" style="stop-color:#C5C4A0"/>
	</radialGradient>
		<ellipse id="chubbyMoon" fill="url(#chubbyMoon_1_)" stroke="#58595B" stroke-width="0.5" stroke-miterlimit="10" stroke-opacity="7.000000e-002" cx="61.8" cy="31.2" rx="27.3" ry="26.5"/>
		<radialGradient id="mooncrater_2_" cx="248.5072" cy="171.0079" r="71.3092" gradientTransform="matrix(0.2761 0 0 0.2761 -4.5736 -17.9305)" gradientUnits="userSpaceOnUse">
		<stop  offset="0.385" style="stop-color:#C2B99D"/>
		<stop  offset="0.4082" style="stop-color:#B5AA86"/>
	</radialGradient>
		<ellipse id="mooncrater" fill="url(#mooncrater_2_)" stroke="#58595B" stroke-width="0.5" stroke-miterlimit="10" stroke-opacity="7.000000e-002" cx="60.9" cy="32.3" rx="7.5" ry="7.3"/>
		<radialGradient id="mooncrater_4_" cx="328.3989" cy="-40.7337" r="71.3092" gradientTransform="matrix(7.215338e-002 0 0 7.215340e-002 25.6009 15.7241)" gradientUnits="userSpaceOnUse">
		<stop  offset="0.385" style="stop-color:#C2B99D"/>
		<stop  offset="0.4082" style="stop-color:#B5AA86"/>
	</radialGradient>
	
		<ellipse id="mooncrater_1_" fill="url(#mooncrater_4_)" stroke="#58595B" stroke-width="0.5" stroke-miterlimit="10" stroke-opacity="7.000000e-002" cx="48.5" cy="13.6" rx="2" ry="1.9"/>
		<radialGradient id="mooncrater_6_" cx="455.6206" cy="33.6355" r="71.3092" gradientTransform="matrix(0.1198 0 0 0.1198 13.506 8.4935)" gradientUnits="userSpaceOnUse">
		<stop  offset="0.385" style="stop-color:#C2B99D"/>
		<stop  offset="0.4082" style="stop-color:#B5AA86"/>
	</radialGradient>
		<ellipse id="mooncrater_3_" fill="url(#mooncrater_6_)" stroke="#58595B" stroke-width="0.5" stroke-miterlimit="10" stroke-opacity="7.000000e-002" cx="66.7" cy="13.8" rx="3.3" ry="3.2"/>
		<radialGradient id="mooncrater_7_" cx="532.6715" cy="160.4353" r="71.3092" gradientTransform="matrix(0.1405 0 0 0.1405 6.587 5.366)" gradientUnits="userSpaceOnUse">
		<stop  offset="0.385" style="stop-color:#C2B99D"/>
		<stop  offset="0.4082" style="stop-color:#B5AA86"/>
	</radialGradient>
		<ellipse id="mooncrater_5_" fill="url(#mooncrater_7_)" stroke="#58595B" stroke-width="0.5" stroke-miterlimit="10" stroke-opacity="7.000000e-002" cx="79.8" cy="29.4" rx="3.8" ry="3.7"/>
		<radialGradient id="mooncrater_10_" cx="236.5847" cy="186.8517" r="71.3092" gradientTransform="matrix(0.1712 0 0 0.1712 2.2486 -2.7871)" gradientUnits="userSpaceOnUse">
		<stop  offset="0.385" style="stop-color:#C2B99D"/>
		<stop  offset="0.4082" style="stop-color:#B5AA86"/>
	</radialGradient>
		<ellipse id="mooncrater_8_" fill="url(#mooncrater_10_)" stroke="#58595B" stroke-width="0.5" stroke-miterlimit="10" stroke-opacity="7.000000e-002" cx="40.8" cy="31.1" rx="4.7" ry="4.5"/>
		<radialGradient id="mooncrater_12_" cx="315.6328" cy="235.365" r="71.3092" gradientTransform="matrix(0.1135 0 0 0.1135 12.8171 17.5574)" gradientUnits="userSpaceOnUse">
		<stop  offset="0.385" style="stop-color:#C2B99D"/>
		<stop  offset="0.4082" style="stop-color:#B5AA86"/>
	</radialGradient>
		<ellipse id="mooncrater_9_" fill="url(#mooncrater_12_)" stroke="#58595B" stroke-width="0.5" stroke-miterlimit="10" stroke-opacity="7.000000e-002" cx="47.3" cy="45.5" rx="3.1" ry="3"/>
		<radialGradient id="mooncrater_13_" cx="500.9887" cy="293.8005" r="71.3092" gradientTransform="matrix(0.1135 0 0 0.1135 12.8171 17.5574)" gradientUnits="userSpaceOnUse">
		<stop  offset="0.385" style="stop-color:#C2B99D"/>
		<stop  offset="0.4082" style="stop-color:#B5AA86"/>
	</radialGradient>
<ellipse id="mooncrater_11_" fill="url(#mooncrater_13_)" stroke="#58595B" stroke-width="0.5" stroke-miterlimit="10" stroke-opacity="7.000000e-002" cx="68.4" cy="52.2" rx="3.1" ry="3"/>
</g>
<g id="smallcloud">
<path id="XMLID_3_" fill="#5BCAEB" stroke="#6D6E71" stroke-width="0.5" stroke-miterlimit="10" stroke-opacity="8.000000e-002" d="
		M19,39.9c0,0,5.7,1.7,7-1.2c5.4,3,9.1,0.6,11.5,0c0.5,2.3,6.1,1.2,6.1,1.2s10.7-2.6,9.9-11.7c0,0-1.9-12.4-14-10
		c0,0-9.7-9.5-18.6,2.5c0,0-9-0.5-10.3,10C10.6,30.7,10.9,37.8,19,39.9z"/>
</g>
<g id="bigCloud">
<path id="XMLID_9_" fill="#F4F4F4" stroke="#515251" stroke-width="0.5" stroke-miterlimit="10" stroke-opacity="8.000000e-002" d="	M22.3,65.5c0,0-8.9-2.9-9.3-12.8s10-11.3,11.4-10.1c0,0,2.5-8.4,10.1-8.6c0,0,3.5-13.4,17.8-13.1c0,0,15.6-0.8,17.9,16.4
c0,0,12.9-1,13.4,15.1c0,0-1.4,10.9-11.9,13.1c0,0-12,2-13.8-2.3c-0.2,2.1-15,6-19.6,0C33.8,68.4,22.3,65.5,22.3,65.5z"/>
</g>
</svg>


