<?xml version="1.0" encoding="UTF-8" standalone="no"?>
<svg
   class="svg"
   version="1.1"
   x="0px"
   y="0px"
   viewBox="0 0 100 100"
   enable-background="new 0 0 100 100"
   xml:space="preserve"
   id="svg82"
   sodipodi:docname="2.svg"
   inkscape:version="1.1.1 (3bf5ae0d25, 2021-09-20)"
   xmlns:inkscape="http://www.inkscape.org/namespaces/inkscape"
   xmlns:sodipodi="http://sodipodi.sourceforge.net/DTD/sodipodi-0.dtd"
   xmlns="http://www.w3.org/2000/svg"
   xmlns:svg="http://www.w3.org/2000/svg"><defs
   id="defs86" /><sodipodi:namedview
   id="namedview84"
   pagecolor="#ffffff"
   bordercolor="#666666"
   borderopacity="1.0"
   inkscape:pageshadow="2"
   inkscape:pageopacity="0.0"
   inkscape:pagecheckerboard="0"
   showgrid="false"
   inkscape:zoom="7.93"
   inkscape:cx="50"
   inkscape:cy="50"
   inkscape:window-width="1865"
   inkscape:window-height="746"
   inkscape:window-x="584"
   inkscape:window-y="226"
   inkscape:window-maximized="0"
   inkscape:current-layer="svg82" />
<g
   id="totalSun"
   transform="matrix(0.73719809,0,0,0.73719809,23.883788,1.9606981)">
<g
   id="sunRays">
	<radialGradient
   id="XMLID_4_"
   cx="51.156601"
   cy="21.1667"
   r="4.7266998"
   gradientUnits="userSpaceOnUse">
		<stop
   offset="0.3333"
   style="stop-color:#FBD25A"
   id="stop2" />
		<stop
   offset="0.7581"
   style="stop-color:#FAD45D"
   id="stop4" />
		<stop
   offset="1"
   style="stop-color:#F5E16E"
   id="stop6" />
	</radialGradient>

		<path
   id="XMLID_3_"
   fill="url(#XMLID_4_)"
   stroke="#6d6e71"
   stroke-width="0.5"
   stroke-miterlimit="10"
   stroke-opacity="0.07"
   d="m 56.1,25.3 h -9.7 c 0,0 -1.2,-6.1 0,-7.4 1.2,-1.3 8.9,-1 9.7,0 0.7,1 0,7.4 0,7.4 z"
   style="fill:url(#XMLID_4_)" />
	<radialGradient
   id="XMLID_12_"
   cx="71.245697"
   cy="29.7708"
   r="6.0292001"
   gradientUnits="userSpaceOnUse">
		<stop
   offset="0.3333"
   style="stop-color:#FBD25A"
   id="stop10" />
		<stop
   offset="0.7581"
   style="stop-color:#FAD45D"
   id="stop12" />
		<stop
   offset="1"
   style="stop-color:#F5E16E"
   id="stop14" />
	</radialGradient>

		<path
   id="XMLID_5_"
   fill="url(#XMLID_12_)"
   stroke="#6d6e71"
   stroke-width="0.5"
   stroke-miterlimit="10"
   stroke-opacity="0.07"
   d="m 71.8,35.8 -6.6,-7.1 c 0,0 3.7,-5 5.4,-5.1 1.7,-0.1 6.8,5.8 6.6,7.1 -0.1,1.3 -5.4,5.1 -5.4,5.1 z"
   style="fill:url(#XMLID_12_)" />
	<radialGradient
   id="XMLID_13_"
   cx="79.015999"
   cy="49.166698"
   r="4.757"
   gradientUnits="userSpaceOnUse">
		<stop
   offset="0.3333"
   style="stop-color:#FBD25A"
   id="stop18" />
		<stop
   offset="0.7581"
   style="stop-color:#FAD45D"
   id="stop20" />
		<stop
   offset="1"
   style="stop-color:#F5E16E"
   id="stop22" />
	</radialGradient>

		<path
   id="XMLID_6_"
   fill="url(#XMLID_13_)"
   stroke="#6d6e71"
   stroke-width="0.5"
   stroke-miterlimit="10"
   stroke-opacity="0.07"
   d="m 75.1,54.2 -0.3,-9.7 c 0,0 6.1,-1.3 7.4,-0.2 1.3,1.1 1.2,8.9 0.3,9.7 -1,0.8 -7.4,0.2 -7.4,0.2 z"
   style="fill:url(#XMLID_13_)" />
	<radialGradient
   id="XMLID_14_"
   cx="70.245697"
   cy="69.600197"
   r="6.0233998"
   gradientUnits="userSpaceOnUse">
		<stop
   offset="0.3333"
   style="stop-color:#FBD25A"
   id="stop26" />
		<stop
   offset="0.7581"
   style="stop-color:#FAD45D"
   id="stop28" />
		<stop
   offset="1"
   style="stop-color:#F5E16E"
   id="stop30" />
	</radialGradient>

		<path
   id="XMLID_7_"
   fill="url(#XMLID_14_)"
   stroke="#6d6e71"
   stroke-width="0.5"
   stroke-miterlimit="10"
   stroke-opacity="0.07"
   d="m 64.3,70.7 6.4,-7.2 c 0,0 5.3,3.2 5.5,4.9 0.2,1.7 -5.2,7.3 -6.4,7.2 -1.3,0 -5.5,-4.9 -5.5,-4.9 z"
   style="fill:url(#XMLID_14_)" />

		<radialGradient
   id="XMLID_15_"
   cx="50.798698"
   cy="78.071198"
   r="4.7789001"
   gradientTransform="matrix(0.998,-0.06322496,0.06322496,0.998,-4.8396,3.3703)"
   gradientUnits="userSpaceOnUse">
		<stop
   offset="0.3333"
   style="stop-color:#FBD25A"
   id="stop34" />
		<stop
   offset="0.7581"
   style="stop-color:#FAD45D"
   id="stop36" />
		<stop
   offset="1"
   style="stop-color:#F5E16E"
   id="stop38" />
	</radialGradient>

		<path
   id="XMLID_8_"
   fill="url(#XMLID_15_)"
   stroke="#6d6e71"
   stroke-width="0.5"
   stroke-miterlimit="10"
   stroke-opacity="0.07"
   d="M 45.8,74.2 55.5,74 c 0,0 1.3,6.1 0.2,7.4 -1.1,1.3 -8.9,1.2 -9.7,0.2 -0.8,-1 -0.2,-7.4 -0.2,-7.4 z"
   style="fill:url(#XMLID_15_)" />
	<radialGradient
   id="XMLID_16_"
   cx="30.586399"
   cy="70.225197"
   r="6.0152998"
   gradientUnits="userSpaceOnUse">
		<stop
   offset="0.3333"
   style="stop-color:#FBD25A"
   id="stop42" />
		<stop
   offset="0.7581"
   style="stop-color:#FAD45D"
   id="stop44" />
		<stop
   offset="1"
   style="stop-color:#F5E16E"
   id="stop46" />
	</radialGradient>

		<path
   id="XMLID_9_"
   fill="url(#XMLID_16_)"
   stroke="#6d6e71"
   stroke-width="0.5"
   stroke-miterlimit="10"
   stroke-opacity="0.07"
   d="m 29.3,64.3 7.3,6.3 c 0,0 -3.1,5.4 -4.8,5.6 -1.7,0.2 -7.4,-5 -7.3,-6.3 0.1,-1.3 4.8,-5.6 4.8,-5.6 z"
   style="fill:url(#XMLID_16_)" />
	<radialGradient
   id="XMLID_44_"
   cx="21.087099"
   cy="50"
   r="4.8092999"
   gradientUnits="userSpaceOnUse">
		<stop
   offset="0.3333"
   style="stop-color:#FBD25A"
   id="stop50" />
		<stop
   offset="0.7581"
   style="stop-color:#FAD45D"
   id="stop52" />
		<stop
   offset="1"
   style="stop-color:#F5E16E"
   id="stop54" />
	</radialGradient>

		<path
   id="XMLID_10_"
   fill="url(#XMLID_44_)"
   stroke="#6d6e71"
   stroke-width="0.5"
   stroke-miterlimit="10"
   stroke-opacity="0.07"
   d="m 24.8,44.8 0.6,9.6 c 0,0 -6,1.5 -7.4,0.5 -1.4,-1.1 -1.5,-8.8 -0.6,-9.6 0.9,-0.9 7.4,-0.5 7.4,-0.5 z"
   style="fill:url(#XMLID_44_)" />
	<radialGradient
   id="XMLID_45_"
   cx="29.961399"
   cy="29.007299"
   r="6.0190001"
   gradientUnits="userSpaceOnUse">
		<stop
   offset="0.3333"
   style="stop-color:#FBD25A"
   id="stop58" />
		<stop
   offset="0.7581"
   style="stop-color:#FAD45D"
   id="stop60" />
		<stop
   offset="1"
   style="stop-color:#F5E16E"
   id="stop62" />
	</radialGradient>

		<path
   id="XMLID_11_"
   fill="url(#XMLID_45_)"
   stroke="#6d6e71"
   stroke-width="0.5"
   stroke-miterlimit="10"
   stroke-opacity="0.07"
   d="M 36,28.6 28.7,35 c 0,0 -4.9,-3.8 -4.9,-5.6 0,-1.7 6.1,-6.6 7.3,-6.3 1.3,0.2 4.9,5.5 4.9,5.5 z"
   style="fill:url(#XMLID_45_)" />
<radialGradient
   id="XMLID_46_"
   cx="50"
   cy="49.166698"
   r="26.8776"
   gradientUnits="userSpaceOnUse">
	<stop
   offset="0.3333"
   style="stop-color:#E3BF4C"
   id="stop66" />
	<stop
   offset="0.7473"
   style="stop-color:#F4CE52"
   id="stop68" />
	<stop
   offset="1"
   style="stop-color:#F5E16E"
   id="stop70" />
</radialGradient>
<ellipse
   id="XMLID_1_"
   fill="url(#XMLID_46_)"
   stroke="#58595b"
   stroke-width="0.5"
   stroke-miterlimit="10"
   stroke-opacity="0.07"
   cx="50"
   cy="49.200001"
   rx="27.299999"
   ry="26.5"
   style="fill:url(#XMLID_46_)" />
</g>
</g>
<g
   id="smallcloud"
   transform="translate(-4.3009927,10.959044)">

		<path
   id="path76"
   fill="#5bcaeb"
   stroke="#6d6e71"
   stroke-width="0.5"
   stroke-miterlimit="10"
   stroke-opacity="0.08"
   d="m 19,39.9 c 0,0 5.7,1.7 7,-1.2 5.4,3 9.1,0.6 11.5,0 0.5,2.3 6.1,1.2 6.1,1.2 0,0 10.7,-2.6 9.9,-11.7 0,0 -1.9,-12.4 -14,-10 0,0 -9.7,-9.5 -18.6,2.5 0,0 -9,-0.5 -10.3,10 0,0 0.3,7.1 8.4,9.2 z" />
</g>
<g
   id="bigCloud"
   transform="matrix(1.0953836,0,0,1.0953836,-5.6363425,5.648194)">

		<path
   id="path79"
   fill="#f4f4f4"
   stroke="#515251"
   stroke-width="0.5"
   stroke-miterlimit="10"
   stroke-opacity="0.08"
   d="m 22.3,65.5 c 0,0 -8.9,-2.9 -9.3,-12.8 -0.4,-9.9 10,-11.3 11.4,-10.1 0,0 2.5,-8.4 10.1,-8.6 0,0 3.5,-13.4 17.8,-13.1 0,0 15.6,-0.8 17.9,16.4 0,0 12.9,-1 13.4,15.1 0,0 -1.4,10.9 -11.9,13.1 0,0 -12,2 -13.8,-2.3 -0.2,2.1 -15,6 -19.6,0 -4.5,5.2 -16,2.3 -16,2.3 z" />
</g>
</svg>
