  <svg class="svg" version="1.1" xmlns="http://www.w3.org/2000/svg" xmlns:xlink="http://www.w3.org/1999/xlink" x="0px" y="0px"
	 viewBox="0 0 100 100" enable-background="new 0 0 100 100" xml:space="preserve">
<g id="rain">
	<path class="raindrop" id="drop1" fill="url(#XMLID_19_)" stroke="#000000" stroke-width="0.5" stroke-miterlimit="10" stroke-opacity="0.5" d="
		M33.8,67.2c0,0-10.4,14.3,0,14.3C44.4,81.5,33.8,67.2,33.8,67.2z"/>
	<path class="raindrop" id="drop2" fill="url(#XMLID_19_)" stroke="#000000" stroke-width="0.5" stroke-miterlimit="10" stroke-opacity="0.5" d="
		M48.2,67c0,0-10.4,14.3,0,14.3C58.8,81.3,48.2,67,48.2,67z"/>
	<linearGradient id="XMLID_19_" gradientUnits="userSpaceOnUse" x1="57.7887" y1="74.1052" x2="67.118" y2="74.1052">
		<stop  offset="0.4718" style="stop-color:#5CCAEB"/>
		<stop  offset="0.5339" style="stop-color:#51B1CD"/>
	</linearGradient>
	<path class="raindrop" id="drop3" fill="url(#XMLID_19_)" stroke="#000000" stroke-width="0.5" stroke-miterlimit="10" stroke-opacity="0.5" d="
		M62.4,67c0,0-10.4,14.3,0,14.3C73,81.3,62.4,67,62.4,67z"/>
</g>
<g id="bigCloudRain">
	
		<path id="XMLID_1_" fill="#F4F4F4" stroke="#515251" stroke-width="0.5" stroke-miterlimit="10" stroke-opacity="8.000000e-002" d="
		M22.3,65.5c0,0-8.9-2.9-9.3-12.8s10-11.3,11.4-10.1c0,0,2.5-8.4,10.1-8.6c0,0,3.5-13.4,17.8-13.1c0,0,15.6-0.8,17.9,16.4
		c0,0,12.9-1,13.4,15.1c0,0-1.4,10.9-11.9,13.1c0,0-12,2-13.8-2.3c-0.2,2.1-15,6-19.6,0C33.8,68.4,22.3,65.5,22.3,65.5z"/>
</g>
</svg>


