<?xml version="1.0" encoding="UTF-8" standalone="no"?>
<svg
   version="1.1"
   x="0px"
   y="0px"
   viewBox="0 0 100 100"
   enable-background="new 0 0 100 100"
   xml:space="preserve"
   id="svg72"
   sodipodi:docname="9.svg"
   inkscape:version="1.1.1 (3bf5ae0d25, 2021-09-20)"
   xmlns:inkscape="http://www.inkscape.org/namespaces/inkscape"
   xmlns:sodipodi="http://sodipodi.sourceforge.net/DTD/sodipodi-0.dtd"
   xmlns:xlink="http://www.w3.org/1999/xlink"
   xmlns="http://www.w3.org/2000/svg"
   xmlns:svg="http://www.w3.org/2000/svg"><defs
   id="defs76"><linearGradient
     inkscape:collect="always"
     xlink:href="#droplet1"
     id="linearGradient919"
     gradientUnits="userSpaceOnUse"
     x1="30.1887"
     y1="74.355202"
     x2="39.518002"
     y2="74.355202" /><linearGradient
     inkscape:collect="always"
     xlink:href="#droplet2"
     id="linearGradient921"
     gradientUnits="userSpaceOnUse"
     x1="43.580399"
     y1="74.355202"
     x2="52.909698"
     y2="74.355202" /><linearGradient
     inkscape:collect="always"
     xlink:href="#droplet3"
     id="linearGradient923"
     gradientUnits="userSpaceOnUse"
     x1="57.705399"
     y1="74.355202"
     x2="67.034698"
     y2="74.355202" /><linearGradient
     inkscape:collect="always"
     xlink:href="#droplet1"
     id="linearGradient925"
     gradientUnits="userSpaceOnUse"
     x1="30.1887"
     y1="74.355202"
     x2="39.518002"
     y2="74.355202" /><linearGradient
     inkscape:collect="always"
     xlink:href="#droplet2"
     id="linearGradient927"
     gradientUnits="userSpaceOnUse"
     x1="43.580399"
     y1="74.355202"
     x2="52.909698"
     y2="74.355202" /><linearGradient
     inkscape:collect="always"
     xlink:href="#droplet3"
     id="linearGradient929"
     gradientUnits="userSpaceOnUse"
     x1="57.705399"
     y1="74.355202"
     x2="67.034698"
     y2="74.355202" /></defs><sodipodi:namedview
   id="namedview74"
   pagecolor="#ffffff"
   bordercolor="#666666"
   borderopacity="1.0"
   inkscape:pageshadow="2"
   inkscape:pageopacity="0.0"
   inkscape:pagecheckerboard="0"
   showgrid="false"
   inkscape:zoom="7.93"
   inkscape:cx="49.936948"
   inkscape:cy="50"
   inkscape:window-width="1912"
   inkscape:window-height="1008"
   inkscape:window-x="0"
   inkscape:window-y="34"
   inkscape:window-maximized="1"
   inkscape:current-layer="svg72" />
<g
   id="Layer_5">
	<radialGradient
   id="chubbyMoon_1_"
   cx="69.25"
   cy="24.1667"
   r="71.3092"
   gradientUnits="userSpaceOnUse">
		<stop
   offset="0.4082"
   style="stop-color:#D3D0B2"
   id="stop2" />
		<stop
   offset="0.42"
   style="stop-color:#C5C4A0"
   id="stop4" />
	</radialGradient>
	
		<ellipse
   id="chubbyMoon"
   fill="url(#chubbyMoon_1_)"
   stroke="#58595B"
   stroke-width="0.5"
   stroke-miterlimit="10"
   stroke-opacity="7.000000e-002"
   cx="57.8"
   cy="35.2"
   rx="27.3"
   ry="26.5" />
	
		<radialGradient
   id="mooncrater_2_"
   cx="241.2625"
   cy="178.2525"
   r="71.3092"
   gradientTransform="matrix(0.2761 0 0 0.2761 -4.5736 -17.9305)"
   gradientUnits="userSpaceOnUse">
		<stop
   offset="0.385"
   style="stop-color:#C2B99D"
   id="stop8" />
		<stop
   offset="0.4082"
   style="stop-color:#B5AA86"
   id="stop10" />
	</radialGradient>
	
		<ellipse
   id="mooncrater"
   fill="url(#mooncrater_2_)"
   stroke="#58595B"
   stroke-width="0.5"
   stroke-miterlimit="10"
   stroke-opacity="7.000000e-002"
   cx="58.9"
   cy="34.3"
   rx="7.5"
   ry="7.3" />
	
		<radialGradient
   id="mooncrater_4_"
   cx="300.6801"
   cy="-13.015"
   r="71.3092"
   gradientTransform="matrix(7.215338e-002 0 0 7.215340e-002 25.6009 15.7241)"
   gradientUnits="userSpaceOnUse">
		<stop
   offset="0.385"
   style="stop-color:#C2B99D"
   id="stop14" />
		<stop
   offset="0.4082"
   style="stop-color:#B5AA86"
   id="stop16" />
	</radialGradient>
	
		<ellipse
   id="mooncrater_1_"
   fill="url(#mooncrater_4_)"
   stroke="#58595B"
   stroke-width="0.5"
   stroke-miterlimit="10"
   stroke-opacity="7.000000e-002"
   cx="46.5"
   cy="15.6"
   rx="2"
   ry="1.9" />
	
		<radialGradient
   id="mooncrater_6_"
   cx="438.9305"
   cy="50.3256"
   r="71.3092"
   gradientTransform="matrix(0.1198 0 0 0.1198 13.506 8.4935)"
   gradientUnits="userSpaceOnUse">
		<stop
   offset="0.385"
   style="stop-color:#C2B99D"
   id="stop20" />
		<stop
   offset="0.4082"
   style="stop-color:#B5AA86"
   id="stop22" />
	</radialGradient>
	
		<ellipse
   id="mooncrater_3_"
   fill="url(#mooncrater_6_)"
   stroke="#58595B"
   stroke-width="0.5"
   stroke-miterlimit="10"
   stroke-opacity="7.000000e-002"
   cx="64.7"
   cy="15.8"
   rx="3.3"
   ry="3.2" />
	
		<radialGradient
   id="mooncrater_14_"
   cx="518.4319"
   cy="174.6749"
   r="71.3092"
   gradientTransform="matrix(0.1405 0 0 0.1405 6.587 5.366)"
   gradientUnits="userSpaceOnUse">
		<stop
   offset="0.385"
   style="stop-color:#C2B99D"
   id="stop26" />
		<stop
   offset="0.4082"
   style="stop-color:#B5AA86"
   id="stop28" />
	</radialGradient>
	
		<ellipse
   id="mooncrater_5_"
   fill="url(#mooncrater_14_)"
   stroke="#58595B"
   stroke-width="0.5"
   stroke-miterlimit="10"
   stroke-opacity="7.000000e-002"
   cx="77.8"
   cy="31.4"
   rx="3.8"
   ry="3.7" />
	
		<radialGradient
   id="mooncrater_15_"
   cx="224.9055"
   cy="198.5309"
   r="71.3092"
   gradientTransform="matrix(0.1712 0 0 0.1712 2.2486 -2.7871)"
   gradientUnits="userSpaceOnUse">
		<stop
   offset="0.385"
   style="stop-color:#C2B99D"
   id="stop32" />
		<stop
   offset="0.4082"
   style="stop-color:#B5AA86"
   id="stop34" />
	</radialGradient>
	
		<ellipse
   id="mooncrater_8_"
   fill="url(#mooncrater_15_)"
   stroke="#58595B"
   stroke-width="0.5"
   stroke-miterlimit="10"
   stroke-opacity="7.000000e-002"
   cx="38.8"
   cy="33.1"
   rx="4.7"
   ry="4.5" />
	
		<radialGradient
   id="mooncrater_16_"
   cx="298.0132"
   cy="252.9846"
   r="71.3092"
   gradientTransform="matrix(0.1135 0 0 0.1135 12.8171 17.5574)"
   gradientUnits="userSpaceOnUse">
		<stop
   offset="0.385"
   style="stop-color:#C2B99D"
   id="stop38" />
		<stop
   offset="0.4082"
   style="stop-color:#B5AA86"
   id="stop40" />
	</radialGradient>
	
		<ellipse
   id="mooncrater_9_"
   fill="url(#mooncrater_16_)"
   stroke="#58595B"
   stroke-width="0.5"
   stroke-miterlimit="10"
   stroke-opacity="7.000000e-002"
   cx="45.3"
   cy="47.5"
   rx="3.1"
   ry="3" />
	
		<radialGradient
   id="mooncrater_17_"
   cx="483.3691"
   cy="311.4201"
   r="71.3092"
   gradientTransform="matrix(0.1135 0 0 0.1135 12.8171 17.5574)"
   gradientUnits="userSpaceOnUse">
		<stop
   offset="0.385"
   style="stop-color:#C2B99D"
   id="stop44" />
		<stop
   offset="0.4082"
   style="stop-color:#B5AA86"
   id="stop46" />
	</radialGradient>
	
		<ellipse
   id="mooncrater_11_"
   fill="url(#mooncrater_17_)"
   stroke="#58595B"
   stroke-width="0.5"
   stroke-miterlimit="10"
   stroke-opacity="7.000000e-002"
   cx="66.4"
   cy="54.2"
   rx="3.1"
   ry="3" />
</g><g
   id="bigCloud">
	
		<path
   id="XMLID_17_"
   fill="#F4F4F4"
   stroke="#515251"
   stroke-width="0.5"
   stroke-miterlimit="10"
   stroke-opacity="8.000000e-002"
   d="   M22.3,65.5c0,0-8.9-2.9-9.3-12.8s10-11.3,11.4-10.1c0,0,2.5-8.4,10.1-8.6c0,0,3.5-13.4,17.8-13.1c0,0,15.6-0.8,17.9,16.4   c0,0,12.9-1,13.4,15.1c0,0-1.4,10.9-11.9,13.1c0,0-12,2-13.8-2.3c-0.2,2.1-15,6-19.6,0C33.8,68.4,22.3,65.5,22.3,65.5z" />
</g>
<g
   id="raindrops"
   transform="matrix(0.71592082,0,0,0.71592082,33.903091,1.9294049)">
	<linearGradient
   id="droplet1"
   gradientUnits="userSpaceOnUse"
   x1="30.1887"
   y1="74.355202"
   x2="39.518002"
   y2="74.355202">
		<stop
   offset="0.4718"
   style="stop-color:#5CCAEB"
   id="stop51" />
		<stop
   offset="0.5339"
   style="stop-color:#51B1CD"
   id="stop53" />
	</linearGradient>
	<path
   id="drop1"
   fill="url(#droplet1)"
   d="m 34.8,67.2 c 0,0 -10.4,14.3 0,14.3 10.6,0 0,-14.3 0,-14.3 z"
   style="fill:url(#linearGradient925)" />
	<linearGradient
   id="droplet2"
   gradientUnits="userSpaceOnUse"
   x1="43.580399"
   y1="74.355202"
   x2="52.909698"
   y2="74.355202">
		<stop
   offset="0.4718"
   style="stop-color:#5CCAEB"
   id="stop57" />
		<stop
   offset="0.5339"
   style="stop-color:#51B1CD"
   id="stop59" />
	</linearGradient>
	<path
   id="drop2"
   fill="url(#droplet2)"
   d="m 48.2,67.2 c 0,0 -10.4,14.3 0,14.3 10.6,0 0,-14.3 0,-14.3 z"
   style="fill:url(#linearGradient927)" />
	<linearGradient
   id="droplet3"
   gradientUnits="userSpaceOnUse"
   x1="57.705399"
   y1="74.355202"
   x2="67.034698"
   y2="74.355202">
		<stop
   offset="0.4718"
   style="stop-color:#5CCAEB"
   id="stop63" />
		<stop
   offset="0.5339"
   style="stop-color:#51B1CD"
   id="stop65" />
	</linearGradient>
	<path
   id="drop3"
   fill="url(#droplet3)"
   d="m 62.3,67.2 c 0,0 -10.4,14.3 0,14.3 10.6,0 0,-14.3 0,-14.3 z"
   style="fill:url(#linearGradient929)" />
</g>

<g
   id="g917"
   transform="matrix(0.71592082,0,0,0.71592082,0.39994363,21.533512)">
	<linearGradient
   id="linearGradient897"
   gradientUnits="userSpaceOnUse"
   x1="30.1887"
   y1="74.355202"
   x2="39.518002"
   y2="74.355202">
		<stop
   offset="0.4718"
   style="stop-color:#5CCAEB"
   id="stop893" />
		<stop
   offset="0.5339"
   style="stop-color:#51B1CD"
   id="stop895" />
	</linearGradient>
	<path
   id="path899"
   fill="url(#droplet1)"
   d="m 34.8,67.2 c 0,0 -10.4,14.3 0,14.3 10.6,0 0,-14.3 0,-14.3 z"
   style="fill:url(#linearGradient919)" />
	<linearGradient
   id="linearGradient905"
   gradientUnits="userSpaceOnUse"
   x1="43.580399"
   y1="74.355202"
   x2="52.909698"
   y2="74.355202">
		<stop
   offset="0.4718"
   style="stop-color:#5CCAEB"
   id="stop901" />
		<stop
   offset="0.5339"
   style="stop-color:#51B1CD"
   id="stop903" />
	</linearGradient>
	<path
   id="path907"
   fill="url(#droplet2)"
   d="m 48.2,67.2 c 0,0 -10.4,14.3 0,14.3 10.6,0 0,-14.3 0,-14.3 z"
   style="fill:url(#linearGradient921)" />
	<linearGradient
   id="linearGradient913"
   gradientUnits="userSpaceOnUse"
   x1="57.705399"
   y1="74.355202"
   x2="67.034698"
   y2="74.355202">
		<stop
   offset="0.4718"
   style="stop-color:#5CCAEB"
   id="stop909" />
		<stop
   offset="0.5339"
   style="stop-color:#51B1CD"
   id="stop911" />
	</linearGradient>
	<path
   id="path915"
   fill="url(#droplet3)"
   d="m 62.3,67.2 c 0,0 -10.4,14.3 0,14.3 10.6,0 0,-14.3 0,-14.3 z"
   style="fill:url(#linearGradient923)" />
</g></svg>
